<?xml version="1.0" encoding="UTF-8"?><svg id="Layer_1" xmlns="http://www.w3.org/2000/svg" viewBox="0 0 110.9 128.1"><defs><style>.cls-1{fill:#e6e7e8;stroke:#2e3192;stroke-miterlimit:10;stroke-width:3px;}.cls-2{fill:#2e3192;}</style></defs><polygon class="cls-1" points="55.5 126.3 1.5 95.2 1.5 32.9 55.5 1.7 109.4 32.9 109.4 95.2 55.5 126.3"/><path class="cls-2" d="M91.7,35.7c-8.1-8.2-20.4-12.3-36.6-12.3s-5.5,0-7.9,.3l-5.5,.5c-2.2,.2-5.3,.3-9.4,.3s-3.7,0-4.2,0l-4.7-.2c-1,0-1.5,.4-1.5,1.2s.7,1.1,2,1.2c3.1,.3,5.4,1.4,6.7,3.3,1.3,1.9,2,4.8,2,8.8v53.7c0,4.4-.4,7.3-1.2,8.8-.8,1.4-2.5,2.4-5.2,3-1.1,.2-1.7,.7-1.7,1.3,0,1,.7,1.4,2.1,1.3,.8,0,2-.2,3.4-.4,3.1-.4,6.8-.7,11.1-.7s8.6,.2,13.9,.5c2.6,.2,4.4,.3,5.5,.3,8.7,0,16.6-2.3,23.9-6.9,5.8-3.6,10.3-8.6,13.6-14.8,3.3-6.3,4.9-13.2,4.9-20.7,0-11.6-3.7-21.2-11.1-28.7Zm-11.7,62.5c-5.4,3.4-11.5,5.1-18.3,5.1s-5-.3-8.3-.9c-3.3-.6-6-1.3-8.1-2.1-2.4-.9-3.6-2.6-3.6-5V34c0-2.5,.5-4.1,1.5-4.9,1.7-1.3,5.7-2,12-2s16.3,2.2,22.4,6.6c5,3.6,9,8.5,11.9,14.8,2.9,6.3,4.3,13.1,4.3,20.6,0,13.7-4.6,23.4-13.8,29.1Z"/><path class="cls-2" d="M86.4,82.6c-.4,0-.8,.4-1.1,1.1-1,2-3.4,3.6-7.2,4.8-3.8,1.2-8.2,1.8-13.3,1.8s-5.5-.3-6.2-.9c-.6-.6-.9-2.5-.9-5.8v-1.4s0-35.7,0-35.7c0-4.3,1.2-6.8,3.7-7.4l1.4-.3c.8-.2,1.2-.6,1.2-1.2s-.3-.6-1-.6-.7,0-1.8,0c-2,.1-4.3,.2-6.8,.2s-4.4,0-6.3-.2c-1.1-.1-2-.2-2.6-.2-.9,0-1.4,.3-1.4,.9s.3,.7,1,.8l1.8,.4c3,.6,4.4,2.7,4.4,6.4v38.6c0,2.6-.4,4.5-1,5.6-.6,1.1-1.9,2-3.8,2.5-.7,.2-1.1,.5-1.1,1s.3,.7,1,.7c.6,0,1.3-.1,2.3-.2,2.3-.3,5.1-.5,8.5-.5s5.7,0,8.3,.3l4.4,.3c1.1,0,2.2,.1,3,.1,5.3,0,9.1-1.5,11.5-4.5,1.7-2.2,2.6-4.1,2.7-5.9,0-.5-.2-.8-.6-.8Z"/></svg>