<?xml version="1.0" standalone="no"?>
<!DOCTYPE svg PUBLIC "-//W3C//DTD SVG 20010904//EN"
 "http://www.w3.org/TR/2001/REC-SVG-20010904/DTD/svg10.dtd">
<svg version="1.0" xmlns="http://www.w3.org/2000/svg"
 width="1024.000000pt" height="1024.000000pt" viewBox="0 0 1024.000000 1024.000000"
 preserveAspectRatio="xMidYMid meet">
<metadata>
Created by potrace 1.14, written by Peter Selinger 2001-2017
</metadata>
<g transform="translate(0.000000,1024.000000) scale(0.100000,-0.100000)"
fill="#000000" stroke="none">
<path d="M5075 10214 c-22 -13 -47 -27 -55 -31 -23 -11 -173 -101 -187 -113
-7 -6 -13 -8 -13 -5 0 4 -13 -3 -29 -14 -16 -12 -34 -21 -40 -21 -6 0 -11 -4
-11 -10 0 -5 -4 -10 -9 -10 -9 0 -72 -36 -406 -230 -88 -51 -174 -101 -192
-111 -17 -10 -134 -77 -260 -150 -125 -72 -243 -140 -260 -150 -18 -11 -50
-29 -70 -41 -21 -12 -58 -33 -83 -47 -25 -14 -46 -29 -48 -33 -2 -4 -12 -8
-22 -8 -10 0 -20 -3 -22 -8 -3 -6 -69 -46 -202 -122 -17 -9 -71 -40 -120 -69
-49 -28 -93 -51 -97 -51 -5 0 -9 -4 -9 -9 0 -5 -8 -11 -17 -14 -18 -6 -94 -48
-103 -57 -3 -3 -18 -12 -35 -20 -16 -8 -37 -19 -45 -26 -8 -6 -40 -24 -70 -40
-30 -15 -57 -31 -60 -35 -3 -3 -25 -17 -50 -29 -25 -12 -47 -25 -50 -29 -3 -3
-19 -13 -35 -22 -59 -31 -460 -262 -465 -268 -3 -4 -17 -12 -32 -18 -15 -7
-46 -25 -70 -40 -24 -15 -45 -28 -48 -28 -3 0 -34 -17 -70 -38 -36 -21 -72
-42 -80 -47 -8 -5 -55 -33 -105 -62 -141 -83 -147 -86 -197 -113 -26 -13 -49
-29 -53 -35 -4 -6 -11 -8 -16 -5 -5 4 -9 2 -9 -4 0 -5 -10 -13 -22 -17 -12 -3
-46 -22 -77 -42 -30 -19 -61 -35 -68 -35 -7 0 -13 -3 -13 -7 0 -4 -17 -15 -37
-26 -21 -10 -40 -22 -43 -25 -3 -3 -36 -23 -75 -44 -38 -21 -72 -42 -73 -46
-2 -5 -11 -9 -21 -9 -9 0 -27 -9 -39 -20 -12 -11 -28 -20 -37 -20 -8 0 -15 -4
-15 -8 0 -5 -18 -17 -40 -27 -22 -10 -45 -24 -51 -31 -6 -8 -15 -11 -20 -8
-15 9 -12 -5119 3 -5134 7 -7 20 -12 30 -12 10 0 18 -4 18 -9 0 -5 17 -18 37
-28 57 -29 107 -57 113 -63 5 -5 41 -26 100 -57 19 -10 37 -20 40 -23 3 -3 16
-11 30 -18 14 -7 42 -23 62 -35 125 -74 220 -127 228 -127 6 0 10 -3 10 -7 0
-5 26 -21 58 -38 31 -16 59 -32 62 -35 5 -5 39 -24 100 -57 19 -10 37 -20 40
-23 3 -3 25 -16 50 -29 25 -13 52 -29 60 -35 8 -7 40 -25 70 -41 30 -15 57
-31 60 -34 3 -3 23 -16 45 -28 22 -11 56 -31 75 -42 19 -12 49 -28 65 -36 17
-9 44 -24 60 -35 17 -11 37 -23 45 -27 8 -4 75 -42 148 -85 73 -43 135 -78
138 -78 3 0 24 -13 47 -29 23 -16 44 -28 47 -28 3 0 16 -6 30 -15 39 -24 311
-181 410 -236 25 -14 57 -33 72 -43 14 -11 28 -19 31 -19 3 0 41 -21 84 -46
86 -52 148 -87 206 -117 20 -10 37 -23 37 -28 0 -5 7 -9 15 -9 8 0 39 -16 69
-35 30 -19 57 -35 60 -35 3 0 38 -20 78 -44 112 -66 223 -130 225 -128 1 1 26
-14 55 -33 29 -19 58 -35 65 -35 7 0 13 -4 13 -9 0 -5 8 -11 18 -15 20 -7 76
-39 95 -55 8 -6 17 -8 20 -4 4 3 7 1 7 -5 0 -7 5 -12 10 -12 6 0 27 -11 48
-23 33 -21 79 -48 162 -94 14 -8 39 -23 55 -33 17 -11 37 -23 45 -27 8 -4 48
-26 88 -50 41 -24 78 -43 83 -43 5 0 9 -3 9 -8 0 -4 20 -16 45 -27 25 -11 45
-23 45 -27 0 -5 7 -8 15 -8 8 0 15 -4 15 -10 0 -5 4 -10 9 -10 5 0 48 -23 96
-50 48 -28 88 -50 89 -50 2 0 41 -22 87 -50 46 -27 89 -50 94 -50 6 0 36 16
67 34 63 38 124 73 208 119 30 16 62 35 70 41 8 6 26 17 40 25 14 8 79 45 145
82 66 37 125 72 130 77 6 4 25 15 43 22 17 8 32 18 32 22 0 5 5 8 11 8 6 0 23
9 37 19 15 10 29 18 32 18 8 -1 64 36 72 48 4 5 8 7 8 3 0 -4 24 7 53 25 55
34 78 47 152 86 25 14 45 28 45 33 0 4 8 8 19 8 10 0 24 7 31 15 7 8 16 15 20
15 5 0 52 26 107 58 54 32 120 71 148 86 27 16 86 50 131 77 44 27 86 49 93
49 6 0 11 4 11 8 0 4 15 15 32 23 39 19 271 151 278 159 6 6 84 49 117 65 13
5 23 13 23 18 0 4 6 7 14 7 7 0 19 7 26 15 7 9 15 13 18 10 3 -3 12 1 21 9 9
7 41 27 71 43 53 29 115 64 155 91 11 6 27 15 35 19 8 4 62 34 120 68 267 157
562 325 571 325 5 0 9 3 9 8 0 4 10 12 23 18 38 18 121 66 149 85 14 11 29 19
32 19 3 0 40 20 82 45 41 25 80 45 85 45 5 0 9 5 9 10 0 6 6 10 14 10 8 0 21
6 28 13 7 6 31 21 53 32 22 11 42 23 45 26 3 3 17 12 32 20 22 12 210 118 297
169 101 59 149 87 166 97 11 7 27 16 35 20 31 15 135 77 140 83 3 4 13 9 23
13 16 6 17 135 15 2568 l-3 2561 -95 55 c-52 30 -111 64 -130 76 -19 11 -60
34 -90 50 -30 17 -56 34 -58 39 -2 4 -8 8 -12 8 -5 0 -58 29 -119 64 -60 35
-112 61 -115 58 -3 -3 -6 0 -6 7 0 6 -10 16 -22 21 -13 5 -45 23 -73 40 -27
16 -61 35 -75 42 -14 7 -43 24 -65 38 -22 14 -53 32 -70 40 -16 8 -37 19 -45
26 -8 7 -33 22 -55 34 -101 56 -411 235 -415 240 -3 3 -16 11 -30 18 -14 7
-43 23 -65 37 -22 14 -49 29 -61 34 -18 8 -83 47 -149 89 -11 6 -27 15 -35 19
-8 4 -64 36 -125 71 -60 36 -135 78 -165 95 -30 16 -62 35 -70 41 -8 6 -24 16
-35 22 -11 6 -65 37 -120 69 -55 32 -116 67 -135 78 -122 69 -196 112 -200
116 -3 4 -19 13 -35 22 -65 33 -120 64 -125 70 -3 3 -41 25 -85 49 -44 24 -82
46 -85 49 -3 4 -16 12 -30 19 -14 6 -32 16 -40 22 -8 5 -89 53 -180 105 -91
52 -170 98 -176 102 -5 4 -26 16 -45 27 -110 60 -148 82 -184 105 -61 38 -138
81 -157 87 -10 4 -18 10 -18 15 0 5 -5 9 -10 9 -6 0 -27 11 -48 24 -20 12 -39
23 -42 23 -3 1 -46 26 -97 57 -51 31 -97 56 -103 56 -5 0 -10 3 -10 8 0 4 -10
12 -23 18 -50 24 -143 78 -158 90 -8 8 -23 14 -31 14 -9 0 -18 4 -20 8 -4 9
-76 52 -86 51 -4 0 -25 -11 -47 -25z"/>
</g>
</svg>
